<svg width="123" height="47" viewBox="0 0 123 47" fill="none" xmlns="http://www.w3.org/2000/svg">
<g clip-path="url(#clip0_25_259)">
<path d="M31.7908 26.0604C31.3373 28.7117 30.657 31.2842 29.7534 33.7779C28.8463 36.275 27.6651 38.4912 26.203 40.4266C24.7409 42.362 23.0046 43.9171 20.9942 45.0886C18.9804 46.2601 16.6384 46.8458 13.9714 46.8458C11.5041 46.8458 9.38873 46.2978 7.62879 45.2016C5.86546 44.1055 4.42027 42.6428 3.28646 40.8068C2.15265 38.9708 1.32344 36.8847 0.795455 34.5418C0.267471 32.1988 0.003479 29.8044 0.003479 27.3587C0.003479 24.4539 0.34193 21.3985 1.02222 18.1889C1.7025 14.9793 2.77201 12.0368 4.23074 9.36159C5.68946 6.68635 7.56448 4.47011 9.8558 2.71288C12.1437 0.955647 14.8987 0.0753174 18.1208 0.0753174C20.385 0.0753174 22.3616 0.52062 24.0471 1.41123C25.7326 2.30183 27.154 3.51443 28.3149 5.04216C29.4724 6.56989 30.3659 8.36823 30.9955 10.4303C31.625 12.4924 32.0142 14.6984 32.1665 17.0414H24.4634C24.0606 15.0546 23.5326 13.3214 22.8794 11.845C22.2262 10.3687 21.5324 9.14579 20.8013 8.1764C20.0703 7.21044 19.3291 6.48425 18.5743 5.99785C17.8196 5.51486 17.1122 5.27166 16.459 5.27166C15.2507 5.27166 14.0932 5.89508 12.9865 7.14536C11.8797 8.39563 10.9219 9.99872 10.1164 11.9615C9.31089 13.9242 8.66783 16.0891 8.19062 18.456C7.71002 20.8264 7.4731 23.1317 7.4731 25.3719C7.4731 27.8177 7.71002 30.0476 8.19062 32.0583C8.66783 34.0725 9.31089 35.792 10.1164 37.217C10.9219 38.6454 11.8256 39.7518 12.8342 40.5431C13.8394 41.3343 14.8716 41.7283 15.931 41.7283C16.9904 41.7283 17.9177 41.372 18.8755 40.6595C19.83 39.947 20.6998 38.9297 21.4816 37.6041C22.26 36.2784 22.9166 34.6514 23.4446 32.7126C23.9726 30.7772 24.3144 28.6124 24.4634 26.218L31.7874 26.0639L31.7908 26.0604Z" fill="#4E60FF"/>
<path d="M49.5324 0.0753174C51.9997 0.0753174 54.1252 0.623382 55.9122 1.71951C57.6992 2.81564 59.1579 4.27829 60.2917 6.11431C61.4255 7.95033 62.2548 10.0501 62.7827 12.4205C63.3107 14.7909 63.5747 17.2229 63.5747 19.72C63.5747 22.6248 63.2363 25.67 62.556 28.8522C61.8757 32.0378 60.7926 34.9665 59.3102 37.6417C57.8244 40.317 55.9359 42.5195 53.6479 44.2528C51.3566 45.986 48.6016 46.8527 45.3796 46.8527C42.9123 46.8527 40.7969 46.3046 39.037 45.2085C37.2737 44.1123 35.8285 42.6497 34.6947 40.8137C33.5608 38.9777 32.7316 36.8916 32.2037 34.5486C31.6757 32.2056 31.4117 29.8113 31.4117 27.3655C31.4117 24.4608 31.7501 21.4053 32.4304 18.1957C33.1107 14.9861 34.1802 12.0437 35.6389 9.36844C37.0977 6.6932 38.9727 4.47696 41.264 2.71973C43.5553 0.962498 46.3103 0.0821682 49.5324 0.0821682V0.0753174ZM55.0457 21.7787C55.0457 20.0489 54.9341 18.2882 54.7073 16.507C54.4805 14.7258 54.0913 13.0953 53.5362 11.6155C52.9812 10.1392 52.2163 8.90259 51.2348 7.90922C50.2533 6.91585 49.0078 6.36779 47.4983 6.26503C45.9888 6.52193 44.7433 7.39884 43.7618 8.90259C42.7803 10.4063 41.9984 12.1396 41.4197 14.0989C40.8409 16.0617 40.4382 18.0724 40.2114 20.1345C39.9847 22.1966 39.873 23.9161 39.873 25.2932C39.873 26.975 39.9982 28.7083 40.252 30.4895C40.5025 32.2741 40.9188 33.9046 41.4975 35.381C42.0763 36.8608 42.8446 38.0939 43.799 39.0873C44.7534 40.0806 45.9617 40.6287 47.4238 40.7315C48.8825 40.4266 50.1044 39.5223 51.0859 38.0185C52.0674 36.5148 52.8492 34.785 53.4279 32.8222C54.0067 30.8629 54.423 28.8761 54.6734 26.862C54.9239 24.8513 55.0525 23.1557 55.0525 21.7787H55.0457Z" fill="#4E60FF"/>
<path d="M70.5941 33.4731C70.5941 34.1273 70.6178 34.8603 70.6686 35.6653C70.7194 36.4737 70.8683 37.241 71.1221 37.9706C71.3726 38.7002 71.7652 39.3065 72.2932 39.7861C72.8212 40.2656 73.5624 40.5054 74.5202 40.5054C75.478 40.5054 76.5475 40.3273 77.7287 39.9745C78.9099 39.6217 79.9929 39.1387 80.9744 38.5324C81.956 37.9261 82.7852 37.2033 83.4654 36.3709C84.1457 35.5351 84.4842 34.6137 84.4842 33.6032C84.4842 32.2879 84.0544 31.3801 83.2015 30.8732C82.3452 30.3662 81.0354 30.1127 79.2754 30.1127C76.9096 30.1127 74.6928 30.6094 72.6316 31.5994C70.5671 32.5893 68.7293 33.7813 67.1182 35.1789C65.5072 36.5765 62.1565 38.9743 59.2966 41.0466C51.3024 46.8493 47.4542 46.7191 47.4542 46.7191V40.7349C47.4542 40.7349 50.0298 41.2316 61.7876 31.7227C62.3156 31.2945 62.6507 30.9074 62.9282 30.5786C63.2057 30.2463 63.4427 29.9689 63.6457 29.7394C63.8454 29.5099 64.0722 29.2941 64.326 29.092V28.0232C64.326 26.3448 64.4276 24.4745 64.6272 22.4124C64.8269 20.3503 65.1688 18.2917 65.646 16.2296C66.1232 14.1675 66.7663 12.1568 67.5718 10.1974C68.3773 8.23809 69.3825 6.50826 70.5908 5.00793C71.799 3.5076 73.2205 2.29843 74.8586 1.38042C76.4933 0.46584 78.3954 0.00683594 80.5582 0.00683594C82.7209 0.00683594 84.7245 0.63026 86.2577 1.88053C87.7942 3.13081 88.5591 4.89832 88.5591 7.19334C88.5591 8.87521 88.2308 10.4543 87.5776 11.9307C86.921 13.4105 86.0681 14.7977 85.0088 16.096C83.9528 17.3942 82.7919 18.5794 81.5363 19.6481C80.2772 20.7168 79.0453 21.6623 77.837 22.4741C77.1838 22.9331 76.3512 23.4674 75.346 24.0806C74.3374 24.6937 73.383 25.2281 72.4759 25.6871C73.7857 25.1253 75.1429 24.68 76.5543 24.3512C77.9622 24.0189 79.3973 23.8545 80.8594 23.8545C82.3215 23.8545 83.7159 24.0326 85.0494 24.3889C86.3829 24.7451 87.5539 25.2932 88.5591 26.0331C89.5643 26.773 90.3699 27.7149 90.9757 28.859C91.5815 30.0065 91.8827 31.3938 91.8827 33.0243C91.8827 35.0111 91.2024 36.8471 89.8452 38.5255C88.4847 40.2074 86.8364 41.6838 84.9005 42.958C82.9612 44.2323 80.9237 45.2256 78.7847 45.9381C76.6457 46.6506 74.7943 47.0068 73.2341 47.0068C71.772 47.0068 70.5163 46.6883 69.4569 46.0511C68.401 45.414 67.5176 44.6125 66.8136 43.6431C66.4109 42.982 66.0081 42.1804 65.6054 41.235C65.2026 40.293 64.9995 39.3887 64.9995 38.5221C64.9995 38.368 65.0232 38.2686 65.074 38.2172C65.3245 37.861 65.6764 37.4671 66.13 37.0321C66.5835 36.6005 67.0742 36.1517 67.6022 35.6961C68.1302 35.2371 68.6582 34.8158 69.1896 34.4356C69.7175 34.0519 70.1812 33.7368 70.5874 33.4799L70.5941 33.4731ZM79.9591 5.65533C78.497 5.65533 77.265 6.15201 76.2598 7.14538C75.2512 8.13875 74.4491 9.35134 73.8433 10.7763C73.2374 12.2047 72.7738 13.705 72.4455 15.2841C72.1172 16.8633 71.9039 18.2403 71.8024 19.4118C72.8076 18.9528 73.867 18.2917 74.9737 17.425C76.0804 16.5584 77.089 15.6027 77.9927 14.558C78.8997 13.5132 79.6646 12.4068 80.2942 11.2319C80.9237 10.0604 81.2384 8.88891 81.2384 7.71743C81.2384 7.05632 81.0997 6.54594 80.8221 6.18969C80.5446 5.83345 80.2569 5.65533 79.9523 5.65533H79.9591Z" fill="#4E60FF"/>
<path d="M101.326 47C99.5622 47 98.0527 46.6814 96.7937 46.0443C95.5347 45.4071 94.4922 44.5302 93.6596 43.4067C92.8304 42.2866 92.2111 40.961 91.8083 39.4332C91.4056 37.9055 91.2059 36.275 91.2059 34.5418C91.2059 32.6064 91.5342 30.8629 92.1874 29.3077C92.8406 27.7526 93.7612 26.4167 94.9424 25.2966C96.1236 24.1765 97.5484 23.3235 99.2102 22.7378C100.872 22.1521 102.734 21.8575 104.798 21.8575C107.215 21.8575 109.733 22.3679 112.349 23.3852C112.599 22.3679 112.802 21.0936 112.955 19.5625C113.107 18.0347 113.182 16.4556 113.182 14.8251C113.182 13.9071 113.117 13.0165 112.992 12.1499C112.867 11.2832 112.654 10.5331 112.349 9.89596C112.048 9.25883 111.655 8.73817 111.178 8.33055C110.697 7.92292 110.108 7.72082 109.404 7.72082C107.089 7.72082 104.724 9.07043 102.307 11.7697C99.8905 14.4723 97.1728 18.367 94.1538 23.4606V12.9891C95.5617 10.6461 96.9223 8.65939 98.2321 7.02889C99.5419 5.3984 100.875 4.06249 102.236 3.01774C103.597 1.97299 105.005 1.22283 106.463 0.763824C107.922 0.30482 109.482 0.0753174 111.144 0.0753174C112.904 0.0753174 114.366 0.510344 115.524 1.37355C116.681 2.24017 117.612 3.36028 118.316 4.7373C119.02 6.11431 119.511 7.67972 119.788 9.43695C120.066 11.1942 120.204 12.9411 120.204 14.671C120.204 16.9146 120.093 19.1309 119.866 21.3197C119.639 23.5119 119.274 25.3445 118.769 26.8209C119.524 27.434 120.265 28.0814 120.996 28.7699C121.724 29.4585 122.394 30.26 122.997 31.178V40.5773C122.039 39.1524 120.807 37.6863 119.297 36.1825C117.788 34.6788 116.163 33.3052 114.427 32.0549C112.691 30.8081 110.927 29.777 109.14 28.9583C107.353 28.1431 105.729 27.7355 104.27 27.7355C102.96 27.7355 101.854 27.9273 100.947 28.3075C100.039 28.6912 99.2982 29.2118 98.7195 29.8729C98.1407 30.534 97.7109 31.2739 97.4368 32.0892C97.1592 32.9044 97.0205 33.7436 97.0205 34.6103C97.0205 35.9873 97.4368 37.1074 98.266 37.974C99.0952 38.8406 100.192 39.2722 101.552 39.2722C104.169 39.2722 106.182 38.457 107.594 36.8265C109.002 35.196 109.983 33.0312 110.538 30.3319C111.493 30.8937 112.45 31.5308 113.408 32.2433C114.363 32.9558 115.371 33.7471 116.427 34.6137C116.025 36.4463 115.331 38.1282 114.349 39.6593C113.368 41.187 112.183 42.4853 110.799 43.5574C109.415 44.6262 107.905 45.4688 106.267 46.0785C104.632 46.6882 102.981 46.9965 101.322 46.9965L101.326 47Z" fill="#4E60FF"/>
</g>
<defs>
<clipPath id="clip0_25_259">
<rect width="123" height="47" fill="white"/>
</clipPath>
</defs>
</svg>
